<svg width="83" height="69" viewBox="0 0 83 69" fill="none" xmlns="http://www.w3.org/2000/svg">
<path d="M82.5619 9.08618C79.8991 10.2332 77.0997 11.0319 74.2329 11.4625C75.5732 11.2326 77.5454 8.81789 78.3304 7.84051C79.523 6.36624 80.432 4.68324 81.011 2.877C81.011 2.74285 81.145 2.55121 81.011 2.45539C80.9435 2.41849 80.8678 2.39915 80.7908 2.39915C80.7139 2.39915 80.6382 2.41849 80.5706 2.45539C77.4577 4.14264 74.1446 5.4304 70.7098 6.28822C70.5901 6.32482 70.4627 6.32811 70.3413 6.29772C70.2198 6.26733 70.109 6.20442 70.0205 6.11574C69.7532 5.7971 69.4654 5.49622 69.1589 5.21503C67.758 3.95872 66.1685 2.93049 64.4487 2.16793C62.1272 1.21466 59.6197 0.80182 57.1154 0.960587C54.6855 1.11418 52.3131 1.76651 50.1458 2.877C48.0116 4.04778 46.1359 5.63832 44.6315 7.55305C43.0489 9.5238 41.9064 11.8109 41.2807 14.2605C40.7648 16.5906 40.7063 18.9988 41.1084 21.3512C41.1084 21.7537 41.1084 21.8112 40.7638 21.7537C27.1119 19.7414 15.9108 14.8929 6.75846 4.48679C6.35637 4.02685 6.14575 4.02685 5.82025 4.48679C1.83765 10.5427 3.77151 20.1247 8.74976 24.8583C9.41991 25.4907 10.1092 26.1039 10.8368 26.6789C8.5543 26.5167 6.32755 25.8976 4.28848 24.8583C3.90554 24.6091 3.69492 24.7433 3.67577 25.2032C3.6215 25.8409 3.6215 26.482 3.67577 27.1196C4.07529 30.1755 5.27853 33.0704 7.16246 35.5082C9.04639 37.9461 11.5434 39.8393 14.3982 40.9945C15.0941 41.2928 15.8192 41.5176 16.5618 41.6652C14.4488 42.0816 12.2816 42.1464 10.1475 41.8569C9.68797 41.761 9.51565 42.0102 9.68797 42.451C12.5026 50.1166 18.6105 52.4546 23.091 53.7578C23.7037 53.8536 24.3164 53.8536 25.0057 54.0069C25.0057 54.0069 25.0057 54.0069 24.8908 54.1219C23.5696 56.5366 18.2276 58.1656 15.7768 59.0088C11.3034 60.617 6.53389 61.2317 1.79935 60.8102C1.05262 60.6952 0.880293 60.7144 0.688822 60.8102C0.49735 60.906 0.688822 61.1168 0.89944 61.3085C1.8568 61.9409 2.81415 62.4967 3.8098 63.0332C6.77386 64.6514 9.90747 65.9368 13.1536 66.8661C29.9648 71.5038 48.8821 68.0926 61.5001 55.5401C71.4183 45.6897 74.9031 32.1023 74.9031 18.4958C74.9031 17.9783 75.5349 17.6717 75.8987 17.4034C78.408 15.4466 80.6202 13.1355 82.4662 10.5427C82.7859 10.1562 82.9498 9.66404 82.9257 9.16284C82.9257 8.87538 82.9257 8.93287 82.5619 9.08618Z" fill="white"/>
</svg>
