<svg width="62" height="62" viewBox="0 0 62 62" fill="none" xmlns="http://www.w3.org/2000/svg">
<path d="M0.449951 61.2L4.80475 45.0078C1.29271 38.7001 0.176905 31.3396 1.66208 24.2769C3.14725 17.2142 7.13378 10.923 12.8901 6.55787C18.6465 2.19273 25.7866 0.0463919 33.0001 0.51272C40.2136 0.979049 47.0168 4.02676 52.1612 9.0966C57.3056 14.1664 60.4462 20.9183 61.0066 28.1133C61.567 35.3082 59.5096 42.4636 55.2121 48.2665C50.9146 54.0693 44.6651 58.1303 37.6104 59.7043C30.5558 61.2782 23.1692 60.2596 16.8062 56.8353L0.449951 61.2ZM17.5948 50.7761L18.6064 51.3751C23.2153 54.1024 28.5984 55.231 33.9169 54.5851C39.2354 53.9391 44.1904 51.5549 48.0099 47.8039C51.8293 44.0529 54.2986 39.146 55.033 33.8476C55.7674 28.5493 54.7255 23.1573 52.0699 18.5118C49.4142 13.8663 45.2938 10.2284 40.3509 8.16486C35.408 6.10134 29.9202 5.72816 24.7426 7.10349C19.5651 8.47882 14.9887 11.5254 11.7266 15.7685C8.46445 20.0115 6.69988 25.2127 6.70784 30.5615C6.7035 34.9965 7.93209 39.3457 10.2568 43.125L10.8912 44.1691L8.45662 53.2066L17.5948 50.7761Z" fill="white"/>
<path fill-rule="evenodd" clip-rule="evenodd" d="M42.1458 34.7192C41.5528 34.2417 40.8585 33.9056 40.1157 33.7366C39.3729 33.5675 38.6013 33.5699 37.8596 33.7436C36.7452 34.2057 36.0251 35.9516 35.305 36.8245C35.1532 37.0338 34.93 37.1806 34.6775 37.2373C34.425 37.294 34.1604 37.2568 33.9334 37.1326C29.8535 35.5373 26.4337 32.6117 24.2294 28.8311C24.0414 28.5952 23.9524 28.2957 23.9812 27.9956C24.01 27.6955 24.1543 27.4182 24.3837 27.2222C25.1868 26.4284 25.7765 25.4453 26.0982 24.3637C26.1696 23.1707 25.8959 21.9824 25.3095 20.9404C24.8563 19.4796 23.9936 18.1789 22.8235 17.1919C22.22 16.9209 21.5509 16.8301 20.8968 16.9303C20.2427 17.0305 19.6317 17.3176 19.1374 17.7568C18.2792 18.4959 17.5981 19.4179 17.1441 20.4546C16.6901 21.4914 16.4749 22.6167 16.5142 23.7475C16.5169 24.3826 16.5975 25.0149 16.7542 25.6303C17.1524 27.109 17.7646 28.5218 18.5716 29.8239C19.1538 30.8213 19.7891 31.7869 20.4747 32.7166C22.7027 35.7701 25.5035 38.3627 28.7214 40.3505C30.3362 41.3606 32.062 42.1819 33.8648 42.7982C35.7376 43.6457 37.8053 43.971 39.8484 43.7396C41.0125 43.5637 42.1154 43.1048 43.0601 42.4034C44.0049 41.702 44.7624 40.7796 45.2662 39.7172C45.5622 39.0755 45.652 38.358 45.5234 37.6632C45.2148 36.2426 43.3117 35.4039 42.1458 34.7192Z" fill="white"/>
</svg>
