<?xml version="1.0" encoding="UTF-8"?>
<svg id="Layer_2" xmlns="http://www.w3.org/2000/svg" viewBox="0 0 312 303.9">
  <defs>
    <style>
      .cls-1, .cls-2 {
        fill: #fff;
      }

      .cls-2 {
        fill-rule: evenodd;
      }
    </style>
  </defs>
  <g id="Layer_1-2" data-name="Layer_1">
    <g>
      <polygon class="cls-2" points="169.43 301.06 168.51 303.9 143.19 303.9 142.27 301.06 169.43 301.06"/>
      <path class="cls-2" d="M185.56,283.35v5.73h0c0,1.21-.97,2.18-2.18,2.18h-2.07c-.21.01-.42.02-.64.03-.16-.02-.33-.02-.5-.02h-48.65c-.17,0-.33,0-.5.02-.21-.01-.42-.02-.63-.02h-2.08c-1.2-.01-2.17-.98-2.16-2.18v-5.74h59.41Z"/>
      <rect class="cls-1" x="126.15" y="267.5" width="59.41" height="6.04"/>
      <path class="cls-2" d="M186.89,249.78c-.67,2.59-1.08,5.25-1.24,7.92h-59.59c-.16-2.67-.58-5.33-1.25-7.92h62.08Z"/>
      <path class="cls-2" d="M41.42,156.16c0,2.7-2.19,4.9-4.9,4.9H4.9c-2.71,0-4.9-2.2-4.9-4.9s2.19-4.9,4.9-4.9h31.62c2.71,0,4.9,2.19,4.9,4.9Z"/>
      <path class="cls-2" d="M75.09,244.06l-22.36,22.36c-1.92,1.91-5.02,1.91-6.94,0-1.91-1.91-1.91-5.02,0-6.93l22.36-22.37c1.92-1.91,5.02-1.91,6.94,0,1.91,1.92,1.91,5.02,0,6.94Z"/>
      <path class="cls-2" d="M266.41,266.3c-1.94,1.89-5.04,1.84-6.93-.09l-22.36-22.37c-1.92-1.91-1.92-5.01,0-6.93s5.02-1.91,6.93,0l22.36,22.37s.07.06.1.09c1.88,1.94,1.84,5.04-.1,6.93Z"/>
      <path class="cls-2" d="M312,155.85c0,2.71-2.19,4.9-4.9,4.9h-31.63c-2.71-.01-4.89-2.19-4.89-4.9s2.19-4.9,4.9-4.9h31.62c2.71,0,4.9,2.2,4.9,4.9Z"/>
      <path class="cls-2" d="M266.21,52.52l-22.37,22.36c-1.91,1.92-5.01,1.92-6.93,0-1.91-1.91-1.92-5.01,0-6.93l22.36-22.37c1.92-1.91,5.02-1.91,6.93,0h.01c1.91,1.92,1.91,5.03,0,6.94Z"/>
      <path class="cls-2" d="M160.75,4.9v31.63c0,2.71-2.2,4.9-4.9,4.9s-4.9-2.19-4.9-4.9V4.9c0-2.7,2.19-4.9,4.9-4.9s4.9,2.2,4.9,4.9Z"/>
      <path class="cls-2" d="M74.88,75.27c-1.96,1.86-5.07,1.78-6.93-.18l-22.36-22.36c-.06-.06-.12-.11-.18-.17-1.86-1.96-1.79-5.07.18-6.93,1.96-1.87,5.06-1.79,6.92.17l22.37,22.37c.06.05.11.11.17.17,1.86,1.96,1.79,5.06-.17,6.93Z"/>
      <path class="cls-2" d="M223.78,111.81c-15.46-22.24-40.84-35.51-67.92-35.51h0c-45.69,0-82.72,37.04-82.71,82.73,0,27.09,13.26,52.46,35.51,67.92,4.96,3.39,9.1,7.84,12.14,13.03h70.12c3.04-5.19,7.19-9.63,12.15-13.03,37.51-26.07,46.79-77.62,20.72-115.14ZM213.12,134.16c-2.42,1.22-5.37.25-6.59-2.17-9.28-18.37-29.18-30.23-50.68-30.23-2.71,0-4.9-2.2-4.9-4.9h0c0-2.72,2.2-4.91,4.9-4.91,25.17,0,48.5,13.99,59.43,35.62,1.22,2.41.26,5.36-2.16,6.59Z"/>
    </g>
  </g>
</svg>